<?xml version="1.0" encoding="UTF-8"?>
<svg id="Capa_1" xmlns="http://www.w3.org/2000/svg" xmlns:xlink="http://www.w3.org/1999/xlink" viewBox="0 0 496.44 290.17">
  <defs>
    <style>
      .cls-1 {
        fill: url(#Degradado_sin_nombre_19-2);
      }

      .cls-2 {
        fill: url(#Degradado_sin_nombre_19);
      }
    </style>
    <linearGradient id="Degradado_sin_nombre_19" data-name="Degradado sin nombre 19" x1="324.72" y1="90.8" x2="404.48" y2="90.8" gradientUnits="userSpaceOnUse">
      <stop offset=".02" stop-color="#f0f"/>
      <stop offset="1" stop-color="red"/>
    </linearGradient>
    <linearGradient id="Degradado_sin_nombre_19-2" data-name="Degradado sin nombre 19" x1="88.76" y1="88.75" x2="206.57" y2="61.05" xlink:href="#Degradado_sin_nombre_19"/>
  </defs>
  <g>
    <path d="M179.46,225.52c.48-.54.9-1.16,1.2-1.81.7-1.54,0-2.49-1.66-2.13-.95.2-1.9.68-2.68,1.27-2.37,1.79-4.14,4.11-5.39,6.8-.22.47-.32,1-.57,1.79.72-.19,1.22-.24,1.63-.45,2.82-1.37,5.37-3.12,7.47-5.46Z"/>
    <path d="M9.83,154.12v127.53h27.78c7.64-6.35,14.71-13.31,21.18-20.86,4.59-5.35,8.9-10.93,13.33-16.41.31-.38.58-.8,1.02-1.41-.68-.07-1.03-.13-1.39-.14-6.77-.2-12.9-2.39-18.56-6.01-3.06-1.96-5.89-4.2-8.16-7.07-2.65-3.35-4.13-7.13-3.96-11.42.16-4.3,1.67-8.13,4.45-11.43,4.13-4.92,9.38-7.91,15.69-9.12,6.7-1.28,13.21-.41,19.63,1.53,5.9,1.78,11.42,4.43,16.74,7.51.47.28.95.54,1.44.8.07.04.18.02.39.04.38-.49.8-1.02,1.21-1.56,6.9-9.15,14.19-17.96,22.32-26.06,6.05-6.03,12.48-11.59,19.67-16.24,5.49-3.54,11.28-6.44,17.62-8.15,3.82-1.03,7.7-1.7,11.66-1.5,5.52.28,10.5,2.03,14.51,5.97,3.09,3.04,4.12,6.83,3.61,11.07-.71,5.87-3.43,10.85-6.96,15.45-4.58,5.97-10.14,10.93-16.11,15.46-8.81,6.68-18.26,12.37-27.88,17.78-3.47,1.95-6.99,3.82-10.48,5.72-.39.21-.77.45-1.3.75.41.29.68.5.97.68,13.96,8.41,27.91,16.81,41.87,25.21,3.66,2.2,7.62,3.77,11.56,5.38.3.12.6.22.9.34,1.28.51,1.29.53.86,1.94-2.27.47-4.5.32-6.75-.29-4.43-1.22-8.63-3.02-12.78-4.94-10.43-4.83-20.48-10.39-30.45-16.08-4.69-2.67-9.35-5.41-13.99-8.16-.78-.46-1.39-.53-2.24-.09-4.9,2.5-10.09,4.29-15.28,6.09-7.09,2.46-14.32,4.45-21.74,5.68-.72.12-1.45.28-2.17.29-.83.02-1.32.42-1.79,1.05-7.92,10.44-16.44,20.38-25.35,29.99-2.62,2.83-5.31,5.6-8.13,8.22h444v-127.53H9.83ZM181.42,244c-2.36.76-4.78,1.28-7.26,1.4-1.27.06-2.58-.02-3.81-.3-3.16-.7-5.02-3.07-5.39-6.64-.05-.45-.05-.91-.07-1.37-.05-2.22.64-4.24,1.66-6.16,2.42-4.58,5.79-8.32,10.06-11.25,1.44-.99,3.01-1.73,4.77-2.01,1.75-.28,3.01.53,4.06,1.79.99,1.18.76,2.5.21,3.75-.31.69-.8,1.34-1.35,1.88-1.01,1-2.05,1.97-3.18,2.82-3.33,2.5-6.63,5.06-10.4,6.89-.61.29-.76.72-.68,1.33.25,1.85,1.19,3.24,2.76,4.2,1.93,1.18,4.05,1.37,6.23.99,2.78-.48,5.34-1.56,7.86-2.79,5.17-2.51,9.89-5.73,14.48-9.15,3.19-2.38,6.39-4.76,9.58-7.14.22-.16.43-.34.66-.49.43-.29.91-.59,1.35-.1.41.45.14.97-.13,1.39-.17.26-.43.48-.67.68-5.42,4.58-10.87,9.12-16.73,13.15-4.35,2.99-8.96,5.5-14.02,7.13ZM219.14,242.72c-1.03.34-2.11.5-3.07.72-.91-.17-1.7-.22-2.43-.46-1.85-.62-2.61-1.87-2.56-4.04.04-1.91.91-3.13,2.71-3.67,2.18-.66,4.24-.44,6.13.93,1.16.84,1.84,1.93,1.7,3.38-.14,1.55-.99,2.66-2.48,3.15ZM225.02,228.56c-1.87.8-3.83.87-5.76.2-1.74-.6-2.45-1.73-2.45-3.69,0-2.01.76-3.3,2.45-3.86.81-.27,1.69-.33,2.54-.49,1.91,0,3.41.78,4.56,2.22,1.56,1.94.93,4.65-1.34,5.63ZM310.5,175.81c-5.99,9.42-11.98,18.84-17.97,28.26-3.56,5.6-7.11,11.2-10.69,16.78-.52.81-.74,1.61-.74,2.57.02,11.85.01,23.7.01,35.56v1.82h-16.99v-1.69c0-11.85,0-23.7.02-35.56,0-1.05-.23-1.93-.8-2.82-9.42-14.83-18.8-29.68-28.2-44.52-.31-.5-.62-1-.94-1.52,1.08-.31,17.51-.43,20.71-.16,5.81,9.79,11.67,19.65,17.66,29.75,2.2-3.38,4.05-6.71,6.01-9.97,1.98-3.29,3.92-6.61,5.88-9.91,1.96-3.3,3.92-6.6,5.89-9.9h20.89c-.29.51-.5.93-.75,1.32ZM399.64,175.4c-11.75,28.98-23.51,57.96-35.27,86.93-.05.12-.16.21-.27.36h-3.61c-11.88-29.29-23.79-58.66-35.76-88.19h19.76c6.1,15.32,12.59,30.57,17.8,46.39,1.46-3.02,2.44-6.17,3.56-9.26,1.13-3.09,2.2-6.2,3.37-9.28,1.18-3.12,2.46-6.21,3.69-9.31,1.21-3.06,2.42-6.12,3.63-9.18,1.23-3.1,2.46-6.2,3.7-9.36,6.53,0,13.01,0,19.5,0,.02.04.05.07.07.1.02.04.04.09.03.13-.06.22-.11.44-.2.65ZM467.35,260.67c-1.05.27-42.92.31-44.28.04-.32-1.24-.31-84.97.04-86.2h42.86v17.05h-25.72c-.35,1.17-.4,15.96-.07,17.5h22.51v17.18c-7.49.04-14.98,0-22.43.03-.36,1.06-.42,15.82-.07,17.45h27.05c.29,1.17.36,15.33.12,16.96Z"/>
    <path d="M93.21,212.36c-4.34-3.33-9.09-5.97-14.11-8.14-5.33-2.3-10.83-3.56-16.69-2.99-5.24.51-9.97,2.25-13.98,5.72-5.56,4.8-6.39,11.89-2.02,17.81.94,1.28,2.1,2.42,3.28,3.48,2.44,2.18,5.29,3.74,8.22,5.17,5.63,2.74,11.58,4.16,17.83,4.47,1.15.06,1.82-.35,2.47-1.26,5.2-7.25,10.45-14.46,15.68-21.69.27-.37.52-.75.82-1.18-.17-.23-.24-.35-.34-.44-.38-.33-.76-.65-1.16-.96Z"/>
    <path d="M126.49,224.24c4.2-2.33,8.44-4.58,12.6-6.97,10.46-6.01,20.41-12.75,29.42-20.81,4.28-3.83,8.24-7.94,11.33-12.82,1.98-3.12,3.44-6.44,3.94-10.14.37-2.77-.16-5.28-2.02-7.43-1.15-1.33-2.57-2.33-4.1-3.18-5.77-3.19-11.92-3.57-18.25-2.43-5.93,1.07-11.35,3.45-16.45,6.59-6.44,3.96-12.04,8.93-17.21,14.41-8.17,8.66-15.78,17.8-23.35,26.98-.2.24-.36.51-.67.94,1,.74,1.84,1.44,2.76,2.03,6.7,4.29,13.43,8.54,20.13,12.85.71.46,1.23.33,1.87-.03Z"/>
    <path d="M81.39,236.94c-.14.18-.24.39-.34.58-.02.03,0,.09.02.13.01.04.04.07.13.22,12.23-.92,23.6-5.06,35.15-9.79-6.37-4.31-12.48-8.44-18.66-12.61-5.51,7.26-10.9,14.36-16.29,21.46Z"/>
  </g>
  <path d="M347.01,31.9h103.71V14.34h-121.75v122.88h120.3v-17.78h-102.26c0-12.25,0-76.27,0-87.54Z"/>
  <path class="cls-2" d="M336.54,99.39h67.94v-17.55h-79.75c0,7.74.36,13.25,0,17.92,0,0,2.02-.36,11.82-.36Z"/>
  <path d="M291.89,97.57c8.17,13.09,16.2,25.96,24.84,39.8-7.34,0-13.73.16-20.09-.15-1.18-.06-2.54-1.85-3.35-3.13-6.58-10.36-13.13-20.74-19.51-31.22-1.47-2.42-3.1-3.35-5.94-3.28-7.95.19-15.91.07-24.33.07v37.41h-17.66V14.17c6.46,0,12.74-.07,19.02.02,12.14.17,24.33-.13,36.41.78,19.93,1.51,34.34,16.78,35.78,36.96,1.45,20.38-5.45,36.33-25.17,45.64ZM243.68,81.67c12.23,0,24.04.46,35.8-.16,8.45-.45,14.37-5.49,17.69-13.35,6.25-14.77-.93-32.99-14.97-34.69-12.57-1.52-25.47-.32-38.52-.32v48.52Z"/>
  <path d="M486.75,54c-.16,6.92-5.44,11.65-12.86,11.51-5.75-.11-10.53-5.43-10.5-11.67.03-6.83,5.35-11.72,12.73-11.72,6.15,0,10.78,5.18,10.63,11.89Z"/>
  <path d="M486.75,94.35c-.18,6.96-5.26,11.43-12.9,11.37-5.95-.05-10.74-5.6-10.44-12.11.3-6.69,5.49-11.17,12.75-11.02,6.45.13,10.77,4.94,10.59,11.77Z"/>
  <path class="cls-1" d="M144.54,136.19v-50.61c-12.13,14.79-26.41,18.4-42.89,12.15-10.86-4.12-16.93-12.99-16.68-23.29h50.28c-14.61-12.06-18.28-26.2-12.2-42.43,3.77-10.06,11.08-16.5,23.29-17.65v50.32c14.14-15.14,29.35-18.52,46.47-9.84,8.85,4.49,13.58,12.64,13.15,21.67h-49.74c15.42,13.76,18.29,29.14,9.83,46.16-4.08,8.22-11.08,13.23-21.51,13.52Z"/>
</svg>