<?xml version="1.0" encoding="UTF-8"?>
<svg id="Capa_1" xmlns="http://www.w3.org/2000/svg" xmlns:xlink="http://www.w3.org/1999/xlink" viewBox="0 0 639.92 253.86">
  <defs>
    <style>
      .cls-1 {
        fill: url(#Degradado_sin_nombre_19-2);
      }

      .cls-2 {
        fill: #fff;
      }

      .cls-3 {
        fill: url(#Degradado_sin_nombre_19);
      }
    </style>
    <linearGradient id="Degradado_sin_nombre_19" data-name="Degradado sin nombre 19" x1="19.36" y1="123.49" x2="377.7" y2="123.49" gradientUnits="userSpaceOnUse">
      <stop offset=".02" stop-color="#f0f"/>
      <stop offset="1" stop-color="red"/>
    </linearGradient>
    <linearGradient id="Degradado_sin_nombre_19-2" data-name="Degradado sin nombre 19" x1="403.62" y1="123.49" x2="608.49" y2="123.49" xlink:href="#Degradado_sin_nombre_19"/>
  </defs>
  <rect class="cls-2" x="39" y="44.46" width="153.4" height="162.18"/>
  <path class="cls-3" d="M368.87,20.99H28.19c-4.88,0-8.83,3.95-8.83,8.83v187.34c0,4.88,3.95,8.83,8.83,8.83h340.68c4.88,0,8.83-3.95,8.83-8.83V29.82c0-4.88-3.95-8.83-8.83-8.83ZM179.05,176.62c3.73,5.98-.71,13.7-7.76,13.5-1.16-.03-2.31-.08-3.46-.14-1.35-.08-2.95-1.87-3.83-3.25-6.61-10.34-12.99-20.83-19.69-31.12-.97-1.49-3.2-2.99-4.91-3.06-6.61-.26-41.66-.19-59.24-.16-4.87,0-8.81,3.96-8.81,8.83v19.97c0,4.88-3.95,8.83-8.83,8.83h-.09c-4.88,0-8.83-3.95-8.83-8.83v-105.47c0-4.88,3.96-8.83,8.83-8.83,1.56,0,3.1,0,4.65.03,13.81.18,70.63.19,84.43.65,18.05.6,34.37,14.42,36.3,37.59,1.43,17.15-3.71,31.25-17.74,40.85-3.95,2.7-5.15,7.98-2.62,12.04,3.83,6.13,7.66,12.29,11.58,18.56Z"/>
  <path class="cls-2" d="M291.93,84.73h-61.49c-4.88,0-8.83,3.95-8.83,8.83v15.41c0,4.88,3.95,8.83,8.83,8.83h43.06c4.88,0,8.83,3.95,8.83,8.83v.21c0,4.88-3.95,8.83-8.83,8.83h-43.06c-4.88,0-8.83,3.95-8.83,8.83v18.86c0,4.88,3.95,8.83,8.83,8.83h60.29c4.88,0,8.83,3.95,8.83,8.83v.17c0,4.88-3.95,8.83-8.83,8.83h-78.37c-4.88,0-8.83-3.95-8.83-8.83v-105.29c0-4.88,3.95-8.83,8.83-8.83h79.56c4.88,0,8.83,3.95,8.83,8.83h0c0,4.89-3.95,8.84-8.83,8.84Z"/>
  <path class="cls-2" d="M317.23,158.65c-5.79.17-10.77-4.88-11-11.16-.25-6.72,5.07-11.86,12.41-11.99,6.26-.11,10.89,4.43,11.07,10.85.21,7.39-4.54,12.07-12.48,12.3Z"/>
  <path class="cls-2" d="M317.12,118.44c-5.82.09-11.07-5.63-10.91-11.87.17-6.64,5.87-11.67,13.04-11.51,5.96.13,10.51,5.17,10.47,11.58-.05,6.99-5.07,11.69-12.59,11.81Z"/>
  <path class="cls-1" d="M507.73,216.76v-54.03c0-7.63,8.7-12.08,14.83-7.53,17.29,12.83,36.77,14.61,58.48,6.38,14.3-5.42,23.74-15.67,27.13-28.13,1.6-5.88-2.81-11.68-8.91-11.68h-54.02c-7.54,0-11.94-8.6-7.44-14.65,12.78-17.17,14.69-36.46,6.66-57.88-5.1-13.62-14.01-23.37-27.87-27.8-5.91-1.89-11.93,2.63-11.93,8.83v54.32c0,7.46-8.45,11.91-14.51,7.55-20.04-14.41-41.43-15.79-64.92-3.87-11.19,5.68-18.53,14.78-21.29,25.37-1.54,5.89,2.82,11.67,8.91,11.67h53.93c7.52,0,11.99,8.52,7.6,14.62-14.17,19.65-14.94,41.07-3.41,64.28,5.34,10.74,13.59,18.27,25.14,21.45,5.85,1.61,11.63-2.83,11.63-8.9Z"/>
</svg>