<?xml version="1.0" encoding="UTF-8"?>
<svg id="Capa_1" xmlns="http://www.w3.org/2000/svg" viewBox="0 0 436.88 547.32">
  <defs>
    <style>
      .cls-1 {
        fill: #8cc63f;
      }

      .cls-2 {
        fill: #fff;
      }

      .cls-3 {
        fill: #221e1f;
      }
    </style>
  </defs>
  <g>
    <path class="cls-3" d="M156.94,480.68c.41-.46.78-1,1.04-1.57.58-1.25-.1-2.19-1.45-1.89-.83.18-1.67.6-2.35,1.11-2.08,1.57-3.63,3.61-4.73,5.97-.19.41-.28.88-.5,1.57.64-.17,1.07-.21,1.43-.39,2.47-1.2,4.71-2.73,6.56-4.79Z"/>
    <path class="cls-3" d="M8.16,428.12v93.06c0,4.83,3.91,8.74,8.74,8.74h15.63c6.7-5.57,12.9-11.67,18.58-18.29,4.02-4.69,7.81-9.59,11.69-14.4.27-.34.51-.7.9-1.24-.6-.06-.91-.11-1.22-.12-5.94-.18-11.32-2.1-16.28-5.27-2.69-1.72-5.16-3.68-7.16-6.2-3.12-3.94-4.38-8.56-2.81-14.03.7-2.43,2.01-4.64,3.68-6.53,3.55-4,8-6.47,13.32-7.48,6.51-1.24,12.82-.18,19.05,1.93,4.57,1.54,8.88,3.73,13.07,6.12.35.2.7.39,1.05.58.06.03.16.02.34.03.36-.46.77-.97,1.16-1.49,3.77-5.06,7.65-10.04,11.88-14.71,7.53-8.32,15.45-16.19,24.85-22.26,4.81-3.11,9.89-5.65,15.45-7.14,3.35-.9,6.75-1.49,10.23-1.31,4.84.24,9.21,1.78,12.73,5.24,2.71,2.67,3.61,5.99,3.16,9.71-.62,5.15-3.01,9.52-6.11,13.55-4.02,5.23-8.89,9.59-14.13,13.56-7.73,5.86-16.01,10.85-24.45,15.6-3.04,1.71-6.13,3.35-9.19,5.02-.34.19-.68.39-1.14.66.54.38.81.61,1.28.81,11.53,4.76,22.7,10.51,32.03,18.79,4.26,3.78,9.35,5.76,14.41,7.83.26.11.53.2.79.3,1.13.45,1.13.46.75,1.7-1.99.41-3.95.28-5.92-.26-3.88-1.07-7.57-2.65-11.21-4.33-9.15-4.23-17.96-9.12-26.71-14.11-4.11-2.35-8.2-4.75-12.27-7.16-.68-.4-1.22-.46-1.97-.08-6.1,3.11-12.71,4.98-19.08,7.36-3.96,1.48-8.08,2.72-12.3,2.84-.99.03-1.99.35-2.99.38-.73.02-1.16.37-1.57.92-6.95,9.16-14.42,17.87-22.23,26.3-2.3,2.48-4.66,4.91-7.13,7.21h380.55c4.91,0,8.88-3.98,8.88-8.88v-93.17c0-5.41-4.39-9.8-9.8-9.8H18.22c-5.55,0-10.06,4.5-10.06,10.06ZM158.67,496.89c-2.07.67-4.19,1.12-6.36,1.22-1.11.05-2.26-.02-3.34-.26-2.77-.61-4.4-2.69-4.73-5.82-.04-.4-.04-.8-.06-1.2-.05-2.18.72-4.15,1.79-6.01s2.43-3.55,3.92-5.11c2.57-2.68,5.2-5.36,8.75-5.92,1.54-.24,2.64.47,3.56,1.57.85,1.01.68,2.13.23,3.2-.28.66-.71,1.24-1.22,1.74-.88.87-1.8,1.73-2.79,2.47-2.92,2.2-5.81,4.44-9.12,6.05-.53.26-.67.63-.59,1.17.22,1.62,1.05,2.84,2.42,3.69,1.7,1.04,3.55,1.2,5.46.86,2.43-.42,4.69-1.37,6.89-2.44,4.53-2.2,8.68-5.02,12.7-8.03,2.8-2.09,5.6-4.17,8.4-6.26.19-.14.38-.3.58-.43.38-.25.8-.51,1.18-.09.36.4.12.85-.12,1.22-.14.23-.37.42-.59.6-4.75,4.02-9.54,8-14.67,11.53-3.82,2.63-7.86,4.83-12.3,6.25ZM191.69,495.79c-.88.28-1.81.42-2.63.61-.8-.15-1.49-.19-2.13-.4-1.62-.54-2.29-1.64-2.25-3.54.04-1.68.8-2.74,2.37-3.22,1.91-.58,3.72-.38,5.38.81,1.15.83,1.75,1.95,1.41,3.47-.25,1.08-1.1,1.94-2.16,2.28ZM196.91,483.35c-1.64.7-3.36.76-5.06.17-1.52-.53-2.15-1.52-2.15-3.24,0-1.76.67-2.89,2.15-3.39.71-.24,1.48-.29,2.23-.43,1.67,0,2.99.69,4,1.95,1.37,1.7.81,4.08-1.18,4.93ZM271.89,437.08c-5.25,8.26-10.51,16.53-15.76,24.79-3.11,4.9-6.22,9.8-9.36,14.68-.44.68-.67,1.48-.67,2.29.02,10.4.01,20.79.01,31.19v1.6h-14.9v-1.48c0-10.41,0-20.82.01-31.23,0-.86-.24-1.7-.7-2.43-8.26-13.01-16.49-26.03-24.73-39.05-.27-.43-.54-.87-.82-1.33.94-.28,15.36-.38,18.17-.14,5.1,8.59,10.23,17.24,15.49,26.1,1.93-2.97,3.55-5.89,5.27-8.75,1.73-2.89,3.44-5.8,5.16-8.69,1.72-2.89,3.44-5.79,5.16-8.69h18.32c-.25.45-.44.81-.66,1.16ZM350.07,436.72c-10.31,25.42-20.62,50.83-30.94,76.25-.04.11-.14.19-.24.32h-3.17c-10.42-25.69-20.86-51.45-31.36-77.35h17.33c5.35,13.44,11.05,26.81,15.62,40.69,1.28-2.65,2.14-5.41,3.13-8.12.99-2.71,1.93-5.44,2.95-8.14,1.04-2.74,2.15-5.44,3.23-8.16,1.06-2.68,2.12-5.37,3.18-8.06,1.08-2.72,2.15-5.44,3.25-8.21,5.72,0,11.41,0,17.1,0,.02.03.05.06.06.09.01.04.03.08.02.12-.05.19-.1.39-.17.57ZM409.46,511.51c-.92.24-37.64.27-38.84.03-.28-1.08-.27-74.53.03-75.6h37.59v14.95h-22.56c-.31,1.02-.35,14-.06,15.35h19.74v15.07c-6.57.04-13.14,0-19.67.02-.31.93-.37,13.87-.06,15.3h23.73c.26,1.02.31,13.44.1,14.87Z"/>
    <path class="cls-3" d="M81.3,469.14c-3.81-2.92-7.97-5.24-12.37-7.14-4.67-2.02-9.5-3.12-14.64-2.62-4.6.45-8.75,1.98-12.27,5.01-4.88,4.21-5.6,10.43-1.77,15.62.83,1.12,1.84,2.12,2.88,3.06,2.14,1.92,4.64,3.28,7.21,4.54,4.94,2.41,10.16,3.65,15.64,3.92,1.01.05,1.59-.3,2.17-1.11,4.56-6.36,9.17-12.68,13.76-19.02.23-.32.45-.65.72-1.03-.15-.2-.21-.31-.29-.38-.33-.29-.67-.57-1.02-.84Z"/>
    <path class="cls-3" d="M110.49,479.56c3.68-2.05,7.4-4.02,11.06-6.12,9.17-5.27,17.9-11.18,25.8-18.25,3.75-3.36,7.22-6.96,9.94-11.24,1.74-2.74,3.02-5.65,3.45-8.9.33-2.43-.14-4.63-1.77-6.51-1.01-1.17-2.25-2.05-3.6-2.79-5.06-2.8-10.45-3.13-16.01-2.13-5.2.94-9.95,3.03-14.43,5.78-5.65,3.47-10.56,7.83-15.09,12.64-7.16,7.6-13.84,15.61-20.48,23.67-.17.21-.32.45-.58.83,1.57,1.17,2.71,2.23,4.57,2.78,5.62,1.66,10.58,4.94,14.47,9.32,1.25,1.4,1.84,1.39,2.68.93Z"/>
    <path class="cls-3" d="M70.93,490.7c-.12.16-.21.34-.3.51-.01.03,0,.08.01.11.01.03.04.06.12.2,10.73-.81,20.7-4.44,30.83-8.59-5.59-3.78-10.95-7.4-16.37-11.06-4.83,6.36-9.56,12.59-14.29,18.82Z"/>
  </g>
  <rect class="cls-1" x="8.16" y="12.9" width="418.32" height="382.06" rx="7.73" ry="7.73"/>
  <path class="cls-2" d="M70.23,203.33c1.12-.01,2.45-.87,3.29-1.72,5.28-5.32,10.44-10.74,15.64-16.14.88-.91,1.72-1.86,2.66-2.88-6.29-6.96-12.36-13.69-18.53-20.51,6.36-7.02,12.44-13.74,18.62-20.57-6.54-6.76-12.77-13.27-19.12-19.64-.17-.17-.39-.32-.63-.45.51-.31.98-.68,1.36-1.06,5.28-5.32,10.44-10.74,15.64-16.14.88-.91,1.72-1.87,2.66-2.88-6.29-6.97-12.36-13.69-18.53-20.51,6.36-7.02,12.44-13.74,18.62-20.57-6.54-6.76-12.77-13.27-19.12-19.64-.72-.72-2.16-1.01-3.28-1.02-8.6-.08-17.21-.05-25.81-.05h-7.13c6.67,7.35,12.73,14.03,18.85,20.76-6.32,6.98-12.41,13.7-18.61,20.54,6.32,6.97,12.42,13.69,18.63,20.54-5.92,6.51-11.68,12.84-17.67,19.42h-1.19c.2.22.39.43.6.66-.08.08-.15.16-.22.25.23.06.43.11.6.16,6.28,6.92,12.07,13.29,17.88,19.69-6.32,6.98-12.41,13.7-18.61,20.54,6.32,6.97,12.42,13.69,18.63,20.54-6.2,6.81-12.21,13.41-18.49,20.32.96.25,1.33.42,1.7.42,10.53.02,21.05.07,31.58-.05Z"/>
  <path class="cls-2" d="M147.47,203.33c1.12-.01,2.45-.87,3.29-1.72,5.28-5.32,10.44-10.74,15.64-16.14.88-.91,1.72-1.86,2.66-2.88-6.29-6.96-12.36-13.69-18.53-20.51,6.36-7.02,12.44-13.74,18.62-20.57-6.54-6.76-12.77-13.27-19.12-19.64-.17-.17-.39-.32-.63-.45.51-.31.98-.68,1.36-1.06,5.28-5.32,10.44-10.74,15.64-16.14.88-.91,1.72-1.87,2.66-2.88-6.29-6.97-12.36-13.69-18.53-20.51,6.36-7.02,12.44-13.74,18.62-20.57-6.54-6.76-12.77-13.27-19.12-19.64-.72-.72-2.16-1.01-3.28-1.02-8.6-.08-17.21-.05-25.81-.05h-7.13c6.67,7.35,12.73,14.03,18.85,20.76-6.32,6.98-12.41,13.7-18.61,20.54,6.32,6.97,12.42,13.69,18.63,20.54-5.92,6.51-11.68,12.84-17.67,19.42h-1.19c.2.22.39.43.6.66-.08.08-.15.16-.22.25.23.06.43.11.6.16,6.28,6.92,12.07,13.29,17.88,19.69-6.32,6.98-12.41,13.7-18.61,20.54,6.32,6.97,12.42,13.69,18.63,20.54-6.2,6.81-12.21,13.41-18.49,20.32.96.25,1.33.42,1.7.42,10.53.02,21.05.07,31.58-.05Z"/>
  <path class="cls-2" d="M224.7,203.33c1.12-.01,2.45-.87,3.29-1.72,5.28-5.32,10.44-10.74,15.64-16.14.88-.91,1.72-1.86,2.66-2.88-6.29-6.96-12.36-13.69-18.53-20.51,6.36-7.02,12.44-13.74,18.62-20.57-6.54-6.76-12.77-13.27-19.12-19.64-.17-.17-.39-.32-.63-.45.51-.31.98-.68,1.36-1.06,5.28-5.32,10.44-10.74,15.64-16.14.88-.91,1.72-1.87,2.66-2.88-6.29-6.97-12.36-13.69-18.53-20.51,6.36-7.02,12.44-13.74,18.62-20.57-6.54-6.76-12.77-13.27-19.12-19.64-.72-.72-2.16-1.01-3.28-1.02-8.6-.08-17.21-.05-25.81-.05h-7.13c6.67,7.35,12.73,14.03,18.85,20.76-6.32,6.98-12.41,13.7-18.61,20.54,6.32,6.97,12.42,13.69,18.63,20.54-5.92,6.51-11.68,12.84-17.67,19.42h-1.19c.2.22.39.43.6.66-.08.08-.15.16-.22.25.23.06.43.11.6.16,6.28,6.92,12.07,13.29,17.88,19.69-6.32,6.98-12.41,13.7-18.61,20.54,6.32,6.97,12.42,13.69,18.63,20.54-6.2,6.81-12.21,13.41-18.49,20.32.96.25,1.33.42,1.7.42,10.53.02,21.05.07,31.58-.05Z"/>
  <path class="cls-2" d="M301.93,203.33c1.12-.01,2.45-.87,3.29-1.72,5.28-5.32,10.44-10.74,15.64-16.14.88-.91,1.72-1.86,2.66-2.88-6.29-6.96-12.36-13.69-18.53-20.51,6.36-7.02,12.44-13.74,18.62-20.57-6.54-6.76-12.77-13.27-19.12-19.64-.17-.17-.39-.32-.63-.45.51-.31.98-.68,1.36-1.06,5.28-5.32,10.44-10.74,15.64-16.14.88-.91,1.72-1.87,2.66-2.88-6.29-6.97-12.36-13.69-18.53-20.51,6.36-7.02,12.44-13.74,18.62-20.57-6.54-6.76-12.77-13.27-19.12-19.64-.72-.72-2.16-1.01-3.28-1.02-8.6-.08-17.21-.05-25.81-.05h-7.13c6.67,7.35,12.73,14.03,18.85,20.76-6.32,6.98-12.41,13.7-18.61,20.54,6.32,6.97,12.42,13.69,18.63,20.54-5.92,6.51-11.68,12.84-17.67,19.42h-1.19c.2.22.39.43.6.66-.08.08-.15.16-.22.25.23.06.43.11.6.16,6.28,6.92,12.07,13.29,17.88,19.69-6.32,6.98-12.41,13.7-18.61,20.54,6.32,6.97,12.42,13.69,18.63,20.54-6.2,6.81-12.21,13.41-18.49,20.32.96.25,1.33.42,1.7.42,10.53.02,21.05.07,31.58-.05Z"/>
  <path class="cls-2" d="M379.17,203.33c1.12-.01,2.45-.87,3.29-1.72,5.28-5.32,10.44-10.74,15.64-16.14.88-.91,1.72-1.86,2.66-2.88-6.29-6.96-12.36-13.69-18.53-20.51,6.36-7.02,12.44-13.74,18.62-20.57-6.54-6.76-12.77-13.27-19.12-19.64-.17-.17-.39-.32-.63-.45.51-.31.98-.68,1.36-1.06,5.28-5.32,10.44-10.74,15.64-16.14.88-.91,1.72-1.87,2.66-2.88-6.29-6.97-12.36-13.69-18.53-20.51,6.36-7.02,12.44-13.74,18.62-20.57-6.54-6.76-12.77-13.27-19.12-19.64-.72-.72-2.16-1.01-3.28-1.02-8.6-.08-17.21-.05-25.81-.05h-7.13c6.67,7.35,12.73,14.03,18.85,20.76-6.32,6.98-12.41,13.7-18.61,20.54,6.32,6.97,12.42,13.69,18.63,20.54-5.92,6.51-11.68,12.84-17.67,19.42h-1.19c.2.22.39.43.6.66-.08.08-.15.16-.22.25.23.06.43.11.6.16,6.28,6.92,12.07,13.29,17.88,19.69-6.32,6.98-12.41,13.7-18.61,20.54,6.32,6.97,12.42,13.69,18.63,20.54-6.2,6.81-12.21,13.41-18.49,20.32.96.25,1.33.42,1.7.42,10.53.02,21.05.07,31.58-.05Z"/>
  <path class="cls-2" d="M387.34,341.42c-6.27.18-11.65-5.29-11.91-12.08-.27-7.27,5.48-12.83,13.44-12.97,6.77-.12,11.79,4.79,11.98,11.74.22,8-4.92,13.07-13.51,13.32Z"/>
  <path class="cls-2" d="M387.21,297.9c-6.3.1-11.98-6.09-11.81-12.85.19-7.19,6.35-12.63,14.11-12.46,6.45.14,11.38,5.59,11.33,12.54-.05,7.56-5.48,12.65-13.63,12.78Z"/>
  <path class="cls-2" d="M132.47,372.4c.35.56-.06,1.28-.71,1.28-7.13.02-13.45.18-19.73-.17-1.46-.08-3.19-2.02-4.14-3.51-7.15-11.18-14.04-22.52-21.28-33.64-1.05-1.61-3.46-3.23-5.3-3.31-8.54-.33-17.09-.16-26.23-.15-.46,0-.84.37-.84.83v39c0,.46-.37.83-.83.83h-17.52c-.46,0-.83-.37-.83-.83v-131.42c0-.46.38-.83.84-.83,4.66,0,9.2-.05,13.74,0,14.93.19,29.87.21,44.79.71,19.52.65,37.15,15.59,39.24,40.64,1.77,21.24-5.78,38.14-26.41,48.38-.44.22-.6.77-.34,1.18,8.39,13.45,16.73,26.82,25.57,41.01Z"/>
  <path class="cls-2" d="M353.38,259.48h-181.44c-.46,0-.83.37-.83.83v34.01c0,.46.37.83.83.83h163.04c.46,0,.83.37.83.83v17.82c0,.46-.37.83-.83.83h-163.04c-.46,0-.83.37-.83.83v37.8c0,.46.37.83.83.83h179.87c.46,0,.83.37.83.83v17.56c0,.46-.37.83-.83.83h-199.37c-.46,0-.83-.37-.83-.83v-131.16c0-.46.37-.83.83-.83h200.94c.46,0,.83.37.83.83v17.31c0,.46-.37.83-.83.83Z"/>
</svg>