<?xml version="1.0" encoding="UTF-8"?>
<svg id="Capa_1" xmlns="http://www.w3.org/2000/svg" viewBox="0 0 556.16 522.86">
  <defs>
    <style>
      .cls-1 {
        fill: #efebe0;
      }

      .cls-2 {
        fill: #fe204f;
      }

      .cls-3 {
        fill: #221e1f;
      }
    </style>
  </defs>
  <rect class="cls-3" x="9.69" y="15.54" width="533.7" height="487.44" rx="7.73" ry="7.73"/>
  <path class="cls-2" d="M498.11,426.74c-7.98.23-14.85-6.73-15.17-15.39-.35-9.27,6.99-16.35,17.12-16.53,8.63-.15,15.02,6.11,15.27,14.96.28,10.19-6.27,16.65-17.21,16.97Z"/>
  <path class="cls-2" d="M497.95,371.29c-8.02.12-15.27-7.76-15.04-16.38.24-9.16,8.09-16.09,17.98-15.88,8.22.18,14.49,7.13,14.44,15.97-.06,9.63-6.99,16.12-17.37,16.28Z"/>
  <path class="cls-2" d="M89.15,257.11c3.96-4.08,15.82-16.31,21.39-22.07,1.64-1.7,1.68-4.37.1-6.12-6.11-6.77-12.09-13.39-18.11-20.06-1.54-1.71-1.54-4.31,0-6.02,6.17-6.82,12.17-13.44,18.21-20.11,1.59-1.76,1.54-4.44-.11-6.14-6.17-6.35-14.56-14.89-19.07-19.45-1.73-1.75-1.73-4.56,0-6.31,4.91-4.96,14.22-14.54,18.98-19.46,1.64-1.7,1.68-4.38.1-6.13-6.11-6.77-12.09-13.39-18.11-20.06-1.54-1.71-1.54-4.31,0-6.02,6.17-6.82,12.18-13.44,18.22-20.11,1.59-1.75,1.55-4.43-.1-6.13-7.08-7.32-14.6-15.11-21.43-21.99-.84-.85-1.98-1.32-3.17-1.32-5.49-.01-21.94-.05-32.93-.07-3.9,0-5.95,4.62-3.32,7.51,4.97,5.47,9.73,10.72,14.48,15.95,1.55,1.71,1.55,4.32,0,6.03-6.17,6.81-12.2,13.46-18.27,20.17-1.55,1.71-1.55,4.32,0,6.03,6.17,6.8,12.2,13.45,18.29,20.16,1.55,1.71,1.55,4.32,0,6.03-5.71,6.28-13.68,15.04-17.83,19.59-1.56,1.71-1.56,4.32,0,6.03,4.15,4.57,12.15,13.38,17.82,19.62,1.55,1.71,1.55,4.32,0,6.03-6.17,6.81-12.2,13.46-18.27,20.17-1.55,1.71-1.55,4.32,0,6.03,6.17,6.8,12.2,13.45,18.29,20.16,1.55,1.71,1.55,4.33,0,6.04-4.79,5.25-9.65,10.58-14.51,15.9-2.63,2.88-.58,7.52,3.32,7.51l32.83-.04c1.21,0,2.37-.49,3.21-1.36Z"/>
  <path class="cls-2" d="M188.41,257.11c3.96-4.08,15.82-16.31,21.39-22.07,1.64-1.7,1.68-4.37.1-6.12-6.11-6.77-12.09-13.39-18.11-20.06-1.54-1.71-1.54-4.31,0-6.02,6.17-6.82,12.17-13.44,18.21-20.11,1.59-1.76,1.54-4.44-.11-6.14-6.17-6.35-14.56-14.89-19.07-19.45-1.73-1.75-1.73-4.56,0-6.31,4.91-4.96,14.22-14.54,18.98-19.46,1.64-1.7,1.68-4.38.1-6.13-6.11-6.77-12.09-13.39-18.11-20.06-1.54-1.71-1.54-4.31,0-6.02,6.17-6.82,12.18-13.44,18.22-20.11,1.59-1.75,1.55-4.43-.1-6.13-7.08-7.32-14.6-15.11-21.43-21.99-.84-.85-1.98-1.32-3.17-1.32-5.49-.01-21.94-.05-32.93-.07-3.9,0-5.95,4.62-3.32,7.51,4.97,5.47,9.73,10.72,14.48,15.95,1.55,1.71,1.55,4.32,0,6.03-6.17,6.81-12.2,13.46-18.27,20.17-1.55,1.71-1.55,4.32,0,6.03,6.17,6.8,12.2,13.45,18.29,20.16,1.55,1.71,1.55,4.32,0,6.03-5.71,6.28-13.68,15.04-17.83,19.59-1.56,1.71-1.56,4.32,0,6.03,4.15,4.57,12.15,13.38,17.82,19.62,1.55,1.71,1.55,4.32,0,6.03-6.17,6.81-12.2,13.46-18.27,20.17-1.55,1.71-1.55,4.32,0,6.03,6.17,6.8,12.2,13.45,18.29,20.16,1.55,1.71,1.55,4.33,0,6.04-4.79,5.25-9.65,10.58-14.51,15.9-2.63,2.88-.58,7.52,3.32,7.51l32.83-.04c1.21,0,2.37-.49,3.21-1.36Z"/>
  <path class="cls-2" d="M287.66,257.11c3.96-4.08,15.82-16.31,21.39-22.07,1.64-1.7,1.68-4.37.1-6.12-6.11-6.77-12.09-13.39-18.11-20.06-1.54-1.71-1.54-4.31,0-6.02,6.17-6.82,12.17-13.44,18.21-20.11,1.59-1.76,1.54-4.44-.11-6.14-6.17-6.35-14.56-14.89-19.07-19.45-1.73-1.75-1.73-4.56,0-6.31,4.91-4.96,14.22-14.54,18.98-19.46,1.64-1.7,1.68-4.38.1-6.13-6.11-6.77-12.09-13.39-18.11-20.06-1.54-1.71-1.54-4.31,0-6.02,6.17-6.82,12.18-13.44,18.22-20.11,1.59-1.75,1.55-4.43-.1-6.13-7.08-7.32-14.6-15.11-21.43-21.99-.84-.85-1.98-1.32-3.17-1.32-5.49-.01-21.94-.05-32.93-.07-3.9,0-5.95,4.62-3.32,7.51,4.97,5.47,9.73,10.72,14.48,15.95,1.55,1.71,1.55,4.32,0,6.03-6.17,6.81-12.2,13.46-18.27,20.17-1.55,1.71-1.55,4.32,0,6.03,6.17,6.8,12.2,13.45,18.29,20.16,1.55,1.71,1.55,4.32,0,6.03-5.71,6.28-13.68,15.04-17.83,19.59-1.56,1.71-1.56,4.32,0,6.03,4.15,4.57,12.15,13.38,17.82,19.62,1.55,1.71,1.55,4.32,0,6.03-6.17,6.81-12.2,13.46-18.27,20.17-1.55,1.71-1.55,4.32,0,6.03,6.17,6.8,12.2,13.45,18.29,20.16,1.55,1.71,1.55,4.33,0,6.04-4.79,5.25-9.65,10.58-14.51,15.9-2.63,2.88-.58,7.52,3.32,7.51l32.83-.04c1.21,0,2.37-.49,3.21-1.36Z"/>
  <path class="cls-2" d="M386.91,257.11c3.96-4.08,15.82-16.31,21.39-22.07,1.64-1.7,1.68-4.37.1-6.12-6.11-6.77-12.09-13.39-18.11-20.06-1.54-1.71-1.54-4.31,0-6.02,6.17-6.82,12.17-13.44,18.21-20.11,1.59-1.76,1.54-4.44-.11-6.14-6.17-6.35-14.56-14.89-19.07-19.45-1.73-1.75-1.73-4.56,0-6.31,4.91-4.96,14.22-14.54,18.98-19.46,1.64-1.7,1.68-4.38.1-6.13-6.11-6.77-12.09-13.39-18.11-20.06-1.54-1.71-1.54-4.31,0-6.02,6.17-6.82,12.18-13.44,18.22-20.11,1.59-1.75,1.55-4.43-.1-6.13-7.08-7.32-14.6-15.11-21.43-21.99-.84-.85-1.98-1.32-3.17-1.32-5.49-.01-21.94-.05-32.93-.07-3.9,0-5.95,4.62-3.32,7.51,4.97,5.47,9.73,10.72,14.48,15.95,1.55,1.71,1.55,4.32,0,6.03-6.17,6.81-12.2,13.46-18.27,20.17-1.55,1.71-1.55,4.32,0,6.03,6.17,6.8,12.2,13.45,18.29,20.16,1.55,1.71,1.55,4.32,0,6.03-5.71,6.28-13.68,15.04-17.83,19.59-1.56,1.71-1.56,4.32,0,6.03,4.15,4.57,12.15,13.38,17.82,19.62,1.55,1.71,1.55,4.32,0,6.03-6.17,6.81-12.2,13.46-18.27,20.17-1.55,1.71-1.55,4.32,0,6.03,6.17,6.8,12.2,13.45,18.29,20.16,1.55,1.71,1.55,4.33,0,6.04-4.79,5.25-9.65,10.58-14.51,15.9-2.63,2.88-.58,7.52,3.32,7.51l32.83-.04c1.21,0,2.37-.49,3.21-1.36Z"/>
  <path class="cls-2" d="M486.17,257.11c3.96-4.08,15.82-16.31,21.39-22.07,1.64-1.7,1.68-4.37.1-6.12-6.11-6.77-12.09-13.39-18.11-20.06-1.54-1.71-1.54-4.31,0-6.02,6.17-6.82,12.17-13.44,18.21-20.11,1.59-1.76,1.54-4.44-.11-6.14-6.17-6.35-14.56-14.89-19.07-19.45-1.73-1.75-1.73-4.56,0-6.31,4.91-4.96,14.22-14.54,18.98-19.46,1.64-1.7,1.68-4.38.1-6.13-6.11-6.77-12.09-13.39-18.11-20.06-1.54-1.71-1.54-4.31,0-6.02,6.17-6.82,12.18-13.44,18.22-20.11,1.59-1.75,1.55-4.43-.1-6.13-7.08-7.32-14.6-15.11-21.43-21.99-.84-.85-1.98-1.32-3.17-1.32-5.49-.01-21.94-.05-32.93-.07-3.9,0-5.95,4.62-3.32,7.51,4.97,5.47,9.73,10.72,14.48,15.95,1.55,1.71,1.55,4.32,0,6.03-6.17,6.81-12.2,13.46-18.27,20.17-1.55,1.71-1.55,4.32,0,6.03,6.17,6.8,12.2,13.45,18.29,20.16,1.55,1.71,1.55,4.32,0,6.03-5.71,6.28-13.68,15.04-17.83,19.59-1.56,1.71-1.56,4.32,0,6.03,4.15,4.57,12.15,13.38,17.82,19.62,1.55,1.71,1.55,4.32,0,6.03-6.17,6.81-12.2,13.46-18.27,20.17-1.55,1.71-1.55,4.32,0,6.03,6.17,6.8,12.2,13.45,18.29,20.16,1.55,1.71,1.55,4.33,0,6.04-4.79,5.25-9.65,10.58-14.51,15.9-2.63,2.88-.58,7.52,3.32,7.51l32.83-.04c1.21,0,2.37-.49,3.21-1.36Z"/>
  <path class="cls-1" d="M170.14,461.03c1.85,2.97-.27,6.83-3.77,6.86-6.68.05-12.87.09-19.04-.25-1.86-.1-4.06-2.57-5.28-4.47-9.11-14.24-17.9-28.69-27.12-42.86-1.34-2.06-4.41-4.12-6.76-4.21-9.81-.38-19.65-.25-30.03-.21-2.47,0-4.46,2.01-4.46,4.48v42.86c0,2.47-2.01,4.48-4.48,4.48h-15.49c-2.47,0-4.48-2.01-4.48-4.48v-160.62c0-2.47,2-4.47,4.47-4.48,4.76-.02,9.43-.04,14.11.02,19.02.25,38.05.26,57.06.9,24.87.83,47.34,19.86,50,51.78,2.17,25.96-6.6,46.84-30.53,60.01-2.24,1.23-2.96,4.11-1.61,6.27,9,14.43,17.99,28.85,27.4,43.93Z"/>
  <path class="cls-1" d="M451.42,322.33h-224.35c-2.47,0-4.48,2.01-4.48,4.48v36.5c0,2.47,2.01,4.48,4.48,4.48h200.9c2.47,0,4.48,2.01,4.48,4.48v15.87c0,2.47-2.01,4.48-4.48,4.48h-200.9c-2.47,0-4.48,2.01-4.48,4.48v41.33c0,2.47,2.01,4.48,4.48,4.48h222.35c2.47,0,4.48,2.01,4.48,4.48v15.53c0,2.47-2.01,4.48-4.48,4.48h-247.19c-2.47,0-4.48-2.01-4.48-4.48v-160.29c0-2.47,2.01-4.48,4.48-4.48h249.19c2.47,0,4.48,2.01,4.48,4.48v15.22c0,2.47-2.01,4.48-4.48,4.48Z"/>
</svg>