<?xml version="1.0" encoding="UTF-8"?>
<svg id="Capa_1" xmlns="http://www.w3.org/2000/svg" xmlns:xlink="http://www.w3.org/1999/xlink" viewBox="0 0 333.05 264.01">
  <defs>
    <style>
      .cls-1 {
        fill: lime;
      }

      .cls-2 {
        fill: url(#Degradado_sin_nombre_19);
      }
    </style>
    <linearGradient id="Degradado_sin_nombre_19" data-name="Degradado sin nombre 19" x1="152.06" y1="99.84" x2="269.87" y2="72.14" gradientUnits="userSpaceOnUse">
      <stop offset=".02" stop-color="#f0f"/>
      <stop offset="1" stop-color="red"/>
    </linearGradient>
  </defs>
  <rect x="26.78" y="166.11" width="282.72" height="75.6"/>
  <g>
    <path class="cls-1" d="M126.37,208.54c.29-.33.55-.71.73-1.1.43-.93,0-1.51-1.01-1.29-.57.12-1.16.41-1.63.77-1.44,1.09-2.51,2.5-3.27,4.13-.13.29-.2.61-.34,1.08.44-.12.74-.15.99-.27,1.71-.83,3.26-1.89,4.54-3.32Z"/>
    <path class="cls-1" d="M23.43,165.21v77.39h16.86c4.64-3.86,8.93-8.08,12.85-12.66,2.78-3.25,5.4-6.63,8.09-9.96.19-.23.35-.49.62-.86-.41-.04-.63-.08-.84-.08-4.11-.12-7.83-1.45-11.26-3.65-1.86-1.19-3.57-2.55-4.95-4.29-1.61-2.03-2.5-4.33-2.41-6.93.1-2.61,1.01-4.93,2.7-6.94,2.51-2.98,5.69-4.8,9.52-5.53,4.06-.78,8.01-.25,11.91.93,3.58,1.08,6.93,2.69,10.16,4.56.29.17.58.33.87.48.04.02.11.01.24.02.23-.29.49-.62.74-.95,4.19-5.55,8.61-10.9,13.54-15.81,3.67-3.66,7.57-7.03,11.93-9.85,3.33-2.15,6.84-3.91,10.69-4.94,2.32-.62,4.67-1.03,7.07-.91,3.35.17,6.37,1.23,8.81,3.62,1.87,1.84,2.5,4.14,2.19,6.72-.43,3.56-2.08,6.58-4.23,9.37-2.78,3.62-6.15,6.63-9.77,9.38-5.35,4.05-11.08,7.51-16.92,10.79-2.1,1.18-4.24,2.32-6.36,3.47-.24.13-.47.27-.79.45.25.18.41.3.59.41,8.47,5.1,16.94,10.2,25.41,15.3,2.22,1.34,4.62,2.29,7.01,3.27.18.07.36.14.54.21.78.31.78.32.52,1.18-1.38.29-2.73.2-4.09-.18-2.69-.74-5.24-1.83-7.76-3-6.33-2.93-12.43-6.31-18.48-9.76-2.85-1.62-5.67-3.29-8.49-4.95-.47-.28-.84-.32-1.36-.06-2.97,1.52-6.13,2.61-9.27,3.7-4.31,1.49-8.69,2.7-13.19,3.45-.44.07-.88.17-1.32.18-.5.01-.8.26-1.09.64-4.81,6.34-9.98,12.37-15.38,18.2-1.59,1.72-3.22,3.4-4.93,4.99h269.44v-77.39H23.43ZM127.56,219.75c-1.43.46-2.9.77-4.4.85-.77.04-1.56-.01-2.31-.18-1.92-.42-3.04-1.86-3.27-4.03-.03-.28-.03-.55-.04-.83-.03-1.34.39-2.57,1.01-3.74,1.47-2.78,3.51-5.05,6.1-6.83.88-.6,1.82-1.05,2.89-1.22,1.06-.17,1.83.32,2.46,1.08.6.72.46,1.52.13,2.28-.19.42-.49.82-.82,1.14-.61.6-1.24,1.2-1.93,1.71-2.02,1.52-4.02,3.07-6.31,4.18-.37.18-.46.44-.41.81.15,1.12.72,1.97,1.68,2.55,1.17.72,2.46.83,3.78.6,1.68-.29,3.24-.95,4.77-1.69,3.14-1.52,6-3.48,8.79-5.56,1.94-1.44,3.88-2.89,5.81-4.33.13-.1.26-.21.4-.3.26-.18.55-.36.82-.06.25.28.08.59-.08.85-.1.16-.26.29-.41.41-3.29,2.78-6.6,5.54-10.15,7.98-2.64,1.82-5.44,3.34-8.51,4.32ZM150.45,218.98c-.62.2-1.28.3-1.86.43-.56-.1-1.03-.13-1.47-.28-1.12-.37-1.58-1.13-1.56-2.45.02-1.16.55-1.9,1.64-2.23,1.32-.4,2.57-.26,3.72.56.7.51,1.11,1.17,1.03,2.05-.09.94-.6,1.62-1.5,1.91ZM154.02,210.38c-1.13.49-2.32.53-3.5.12-1.05-.36-1.49-1.05-1.49-2.24,0-1.22.46-2,1.49-2.34.49-.16,1.03-.2,1.54-.3,1.16,0,2.07.47,2.77,1.35.95,1.18.56,2.82-.81,3.41ZM205.9,178.37c-3.63,5.72-7.27,11.43-10.9,17.15-2.16,3.4-4.31,6.8-6.49,10.18-.32.49-.45.98-.45,1.56.01,7.19,0,14.38,0,21.58v1.11h-10.31v-1.03c0-7.19,0-14.38,0-21.58,0-.64-.14-1.17-.49-1.71-5.71-9-11.41-18.01-17.11-27.02-.19-.3-.37-.61-.57-.92.65-.19,10.63-.26,12.57-.1,3.53,5.94,7.08,11.93,10.72,18.05,1.33-2.05,2.46-4.07,3.65-6.05,1.2-2,2.38-4.01,3.57-6.02,1.19-2,2.38-4,3.57-6.01h12.68c-.17.31-.3.56-.45.8ZM259.99,178.12c-7.13,17.59-14.27,35.17-21.4,52.75-.03.07-.1.13-.17.22h-2.19c-7.21-17.78-14.44-35.6-21.7-53.51h11.99c3.7,9.3,7.64,18.55,10.8,28.15.89-1.84,1.48-3.74,2.16-5.62.69-1.88,1.34-3.77,2.04-5.63.72-1.89,1.49-3.77,2.24-5.65.74-1.86,1.47-3.72,2.2-5.57.74-1.88,1.49-3.76,2.25-5.68,3.96,0,7.9,0,11.83,0,.01.02.03.04.04.06.01.02.02.06.02.08-.04.13-.07.27-.12.4ZM301.08,229.87c-.63.16-26.05.19-26.87.02-.2-.75-.19-51.56.02-52.31h26.01v10.34h-15.61c-.21.71-.24,9.69-.04,10.62h13.66v10.42c-4.55.03-9.09,0-13.61.02-.22.64-.26,9.6-.04,10.59h16.42c.18.71.22,9.3.07,10.29Z"/>
    <path class="cls-1" d="M74.03,200.55c-2.64-2.02-5.52-3.62-8.56-4.94-3.23-1.4-6.58-2.16-10.13-1.81-3.18.31-6.05,1.37-8.49,3.47-3.38,2.91-3.88,7.22-1.23,10.81.57.77,1.27,1.47,1.99,2.11,1.48,1.33,3.21,2.27,4.99,3.14,3.42,1.67,7.03,2.53,10.82,2.71.7.03,1.1-.21,1.5-.77,3.15-4.4,6.34-8.78,9.52-13.16.16-.22.31-.45.5-.72-.1-.14-.14-.21-.2-.26-.23-.2-.46-.4-.71-.58Z"/>
    <path class="cls-1" d="M94.23,207.76c2.55-1.42,5.12-2.78,7.65-4.23,6.35-3.65,12.39-7.73,17.85-12.63,2.59-2.32,5-4.82,6.87-7.78,1.2-1.89,2.09-3.91,2.39-6.16.23-1.68-.09-3.2-1.23-4.51-.7-.81-1.56-1.42-2.49-1.93-3.5-1.94-7.23-2.17-11.08-1.48-3.6.65-6.89,2.09-9.98,4-3.91,2.4-7.31,5.42-10.44,8.75-4.96,5.26-9.58,10.8-14.17,16.37-.12.15-.22.31-.4.57.61.45,1.12.88,1.67,1.23,4.07,2.6,8.15,5.18,12.21,7.8.43.28.75.2,1.14-.02Z"/>
    <path class="cls-1" d="M66.86,215.47c-.08.11-.14.23-.21.35-.01.02,0,.05.01.08,0,.02.03.04.08.14,7.42-.56,14.32-3.07,21.33-5.94-3.87-2.61-7.57-5.12-11.32-7.65-3.34,4.4-6.62,8.71-9.89,13.02Z"/>
  </g>
  <path d="M166.31,42.98h103.71v-17.55h-121.75v122.88h120.3v-17.78h-102.26c0-12.25,0-76.27,0-87.54Z"/>
  <path d="M111.19,108.66c8.17,13.09,16.2,25.96,24.84,39.8-7.34,0-13.73.16-20.09-.15-1.18-.06-2.54-1.85-3.35-3.13-6.58-10.36-13.13-20.74-19.51-31.22-1.47-2.42-3.1-3.35-5.94-3.28-7.95.19-15.91.07-24.33.07v37.41h-17.66V25.26c6.46,0,12.74-.07,19.02.02,12.14.17,24.33-.13,36.41.78,19.93,1.51,34.34,16.78,35.78,36.96,1.45,20.38-5.45,36.33-25.17,45.64ZM62.99,92.76c12.23,0,24.04.46,35.8-.16,8.45-.45,14.37-5.49,17.69-13.35,6.25-14.77-.93-32.99-14.97-34.69-12.57-1.52-25.47-.32-38.52-.32v48.52Z"/>
  <path d="M306.05,65.09c-.16,6.92-5.44,11.65-12.86,11.51-5.75-.11-10.53-5.43-10.5-11.67.03-6.83,5.35-11.72,12.73-11.72,6.15,0,10.78,5.18,10.63,11.89Z"/>
  <path d="M306.05,105.44c-.18,6.96-5.26,11.43-12.9,11.37-5.95-.05-10.74-5.6-10.44-12.11.3-6.69,5.49-11.17,12.75-11.02,6.45.13,10.77,4.94,10.59,11.77Z"/>
  <path class="cls-2" d="M207.85,147.28v-50.61c-12.13,14.79-26.41,18.4-42.89,12.15-10.86-4.12-16.93-12.99-16.68-23.29h50.28c-14.61-12.06-18.28-26.2-12.2-42.43,3.77-10.06,11.08-16.5,23.29-17.65v50.32c14.14-15.14,29.35-18.52,46.47-9.84,8.85,4.49,13.58,12.64,13.15,21.67h-49.74c15.42,13.76,18.29,29.14,9.83,46.16-4.08,8.22-11.08,13.23-21.51,13.52Z"/>
</svg>