<?xml version="1.0" encoding="UTF-8"?>
<svg id="Capa_1" xmlns="http://www.w3.org/2000/svg" xmlns:xlink="http://www.w3.org/1999/xlink" viewBox="0 0 428.58 205">
  <defs>
    <style>
      .cls-1 {
        fill: url(#Degradado_sin_nombre_19);
      }
    </style>
    <linearGradient id="Degradado_sin_nombre_19" data-name="Degradado sin nombre 19" x1="-8564.7" y1="105.28" x2="-8457.46" y2="80.07" gradientTransform="translate(-8426.23) rotate(-180) scale(1 -1)" gradientUnits="userSpaceOnUse">
      <stop offset=".02" stop-color="#f0f"/>
      <stop offset="1" stop-color="red"/>
    </linearGradient>
  </defs>
  <path d="M935.45,205H-447.57V0H935.45v205ZM685.11,45.88v122.95h186.03v-17.83h-167.96v-36.52h152.64v-17.87h-152.65v-33.06h169.16v-17.67h-187.23ZM178.71,45.94v122.88h185.97v-17.78h-167.94v-36.51h152.36v-18.03h-152.36v-33h169.39v-17.55h-187.42ZM669.04,169.17c-4.88-7.77-9.19-14.62-13.48-21.48-4.27-6.83-8.52-13.66-12.81-20.54.97-.58,1.36-.91,1.82-1.08,22.13-8.57,31.42-36.69,19.11-59.66-7.88-14.7-21.28-20.39-37.35-20.43-50.31-.11-100.62-.04-150.93-.03-1.46,0-2.91.16-4.46.25v122.69h17.83v-39.18c1.08-.17,1.57-.32,2.05-.32,42.81-.02,85.63-.06,128.44.1,1.68,0,3.98,1.5,4.94,2.97,7.24,11.12,14.15,22.45,21.36,33.59.91,1.41,2.89,2.88,4.46,2.97,5.95.35,11.94.14,19.01.14ZM-155.67,129.32c19.72-9.31,26.62-25.26,25.17-45.64-1.44-20.18-15.85-35.45-35.78-36.96-12.09-.92-24.27-.61-36.41-.78-6.28-.09-12.56-.02-19.02-.02v122.9h17.66v-37.41c8.42,0,16.38.13,24.33-.07,2.85-.07,4.47.86,5.94,3.28,6.38,10.48,12.92,20.86,19.51,31.22.81,1.28,2.17,3.07,3.35,3.13,6.36.31,12.75.15,20.09.15-8.64-13.84-16.67-26.72-24.84-39.8ZM88.64,169.04v-37.62c8.75,0,16.9-.18,25.04.14,1.7.07,3.93,1.57,4.91,3.06,6.69,10.29,13.07,20.78,19.69,31.12.88,1.38,2.48,3.17,3.83,3.25,6.22.35,12.47.15,19.65.15-8.62-13.82-16.7-26.78-24.85-39.84,19.67-9.43,26.86-25.21,25.2-45.12-1.93-23.17-18.25-36.99-36.3-37.59-13.8-.46-27.62-.47-41.43-.65-4.45-.06-8.9,0-13.49,0v123.11h17.75ZM-95.79,99.26v-35.44h59.47v-17.59h-77.75v122.76H-34.06v-17.82h-61.81v-34.11h44.12v-17.8h-44.04ZM901.29,85.46c.04-6.42-4.51-11.45-10.47-11.58-7.17-.16-12.86,4.87-13.04,11.51-.16,6.24,5.09,11.96,10.91,11.87,7.53-.11,12.55-4.82,12.59-11.81ZM890.22,114.32c-7.35.13-12.67,5.27-12.41,11.99.24,6.28,5.22,11.33,11,11.16,7.94-.23,12.69-4.91,12.48-12.3-.18-6.42-4.81-10.96-11.07-10.85ZM-5.57,85.75c.15-6.7-4.48-11.88-10.63-11.89-7.38,0-12.71,4.89-12.73,11.72-.03,6.24,4.76,11.56,10.5,11.67,7.42.15,12.7-4.58,12.86-11.51ZM371.33,85.73c.04,6.26,4.93,11.55,10.66,11.53,7.72-.02,12.87-4.93,12.75-12.16-.11-6.36-4.91-11.35-10.82-11.24-7.4.14-12.64,5.07-12.59,11.86ZM383.99,114.34c-7.5-.07-12.65,4.67-12.66,11.63,0,6.28,4.76,11.47,10.58,11.51,7.81.06,12.86-4.67,12.81-11.98-.04-6.51-4.46-11.1-10.73-11.16ZM-5.57,126.11c.18-6.83-4.15-11.64-10.59-11.77-7.26-.15-12.45,4.34-12.75,11.02-.29,6.51,4.49,12.06,10.44,12.11,7.65.07,12.72-4.4,12.9-11.37Z"/>
  <path class="cls-1" d="M87.69,148.47c0-15.29,0-30.15,0-46.07,11.04,13.46,24.04,16.74,39.04,11.06,9.89-3.75,15.41-11.83,15.18-21.2-14.84,0-29.71,0-45.76,0,13.3-10.97,16.64-23.84,11.1-38.62-3.43-9.15-10.09-15.02-21.2-16.06,0,14.98,0,29.65,0,45.8-12.87-13.78-26.72-16.86-42.3-8.96-8.06,4.09-12.36,11.51-11.97,19.73,14.66,0,29.36,0,45.27,0-14.04,12.53-16.64,26.52-8.94,42.01,3.72,7.48,10.09,12.04,19.58,12.31Z"/>
</svg>