<?xml version="1.0" encoding="UTF-8"?>
<svg id="Capa_1" xmlns="http://www.w3.org/2000/svg" viewBox="0 0 296.83 241.87">
  <defs>
    <style>
      .cls-1 {
        fill: #df7d67;
      }
    </style>
  </defs>
  <g>
    <path d="M116.11,195.3c.25-.28.48-.62.64-.96.36-.77-.06-1.34-.89-1.16-.51.11-1.03.37-1.45.69-1.28.97-2.23,2.22-2.91,3.67-.12.26-.17.54-.3.96.39-.1.66-.13.88-.24,1.52-.74,2.9-1.68,4.03-2.95Z"/>
    <path d="M24.63,162.98v57.22c0,2.97,2.41,5.38,5.38,5.38h9.61c4.12-3.43,7.93-7.18,11.42-11.25,2.47-2.88,4.8-5.9,7.19-8.85.17-.21.31-.43.55-.76-.37-.04-.56-.07-.75-.08-3.65-.11-6.96-1.29-10.01-3.24-1.65-1.06-3.17-2.27-4.4-3.81-1.92-2.42-2.69-5.26-1.73-8.63.43-1.49,1.23-2.85,2.27-4.01,2.19-2.46,4.92-3.98,8.19-4.6,4-.76,7.88-.11,11.71,1.19,2.81.95,5.46,2.3,8.03,3.76.21.12.43.24.65.36.04.02.1.01.21.02.22-.28.47-.6.71-.92,2.32-3.11,4.7-6.17,7.31-9.05,4.63-5.12,9.5-9.95,15.28-13.68,2.96-1.91,6.08-3.47,9.5-4.39,2.06-.55,4.15-.91,6.29-.81,2.98.15,5.66,1.09,7.83,3.22,1.67,1.64,2.22,3.68,1.95,5.97-.38,3.17-1.85,5.85-3.76,8.33-2.47,3.22-5.47,5.9-8.69,8.34-4.75,3.6-9.85,6.67-15.03,9.59-1.87,1.05-3.77,2.06-5.65,3.09-.21.12-.42.24-.7.4.33.23.5.38.79.5,7.09,2.92,13.96,6.46,19.7,11.55,2.62,2.32,5.75,3.54,8.86,4.81.16.07.32.12.48.18.69.28.7.28.46,1.04-1.22.25-2.43.17-3.64-.16-2.39-.66-4.65-1.63-6.89-2.66-5.63-2.6-11.04-5.61-16.42-8.67-2.53-1.44-5.04-2.92-7.55-4.4-.42-.25-.75-.29-1.21-.05-3.75,1.91-7.81,3.06-11.73,4.53-2.43.91-4.97,1.67-7.56,1.74-.61.02-1.22.22-1.84.23-.45.01-.71.23-.97.57-4.27,5.63-8.87,10.99-13.67,16.17-1.41,1.53-2.86,3.02-4.38,4.43h233.99c3.02,0,5.46-2.45,5.46-5.46v-57.29c0-3.33-2.7-6.03-6.03-6.03H30.81c-3.42,0-6.18,2.77-6.18,6.18ZM117.17,205.27c-1.27.41-2.58.69-3.91.75-.68.03-1.39-.01-2.06-.16-1.7-.38-2.71-1.65-2.91-3.58-.03-.24-.03-.49-.04-.74-.03-1.34.44-2.55,1.1-3.69s1.5-2.18,2.41-3.14c1.58-1.65,3.2-3.29,5.38-3.64.94-.15,1.62.29,2.19.96.52.62.42,1.31.14,1.97-.17.4-.44.76-.75,1.07-.54.54-1.11,1.06-1.72,1.52-1.79,1.35-3.57,2.73-5.61,3.72-.33.16-.41.39-.37.72.13,1,.64,1.75,1.49,2.27,1.04.64,2.18.74,3.36.53,1.5-.26,2.88-.84,4.24-1.5,2.79-1.35,5.34-3.09,7.81-4.94,1.72-1.28,3.44-2.57,5.17-3.85.12-.09.23-.18.36-.27.23-.16.49-.32.73-.05.22.24.07.52-.07.75-.09.14-.23.26-.36.37-2.92,2.47-5.86,4.92-9.02,7.09-2.35,1.61-4.83,2.97-7.56,3.84ZM137.48,204.59c-.54.17-1.11.26-1.62.37-.49-.09-.92-.12-1.31-.25-1-.33-1.41-1.01-1.38-2.18.02-1.03.49-1.69,1.46-1.98,1.18-.35,2.29-.24,3.31.5.71.51,1.08,1.2.87,2.13-.15.67-.68,1.19-1.33,1.4ZM140.69,196.94c-1.01.43-2.07.47-3.11.11-.94-.32-1.32-.93-1.32-1.99,0-1.08.41-1.78,1.32-2.08.44-.15.91-.18,1.37-.26,1.03,0,1.84.42,2.46,1.2.84,1.05.5,2.51-.72,3.03ZM186.79,168.49c-3.23,5.08-6.46,10.16-9.69,15.24-1.91,3.01-3.82,6.03-5.75,9.03-.27.42-.41.91-.41,1.41.01,6.39,0,12.78,0,19.18v.98h-9.16v-.91c0-6.4,0-12.8,0-19.2,0-.53-.15-1.05-.43-1.49-5.08-8-10.14-16.01-15.21-24.01-.17-.27-.33-.54-.51-.82.58-.17,9.44-.23,11.17-.09,3.14,5.28,6.29,10.6,9.53,16.05,1.19-1.82,2.18-3.62,3.24-5.38,1.07-1.78,2.12-3.56,3.17-5.35,1.06-1.78,2.11-3.56,3.17-5.34h11.27c-.16.27-.27.5-.4.71ZM234.86,168.27c-6.34,15.63-12.68,31.26-19.02,46.88-.03.06-.09.12-.15.19h-1.95c-6.41-15.8-12.83-31.64-19.28-47.56h10.66c3.29,8.26,6.79,16.49,9.6,25.02.79-1.63,1.31-3.33,1.92-4.99.61-1.67,1.19-3.35,1.82-5.01.64-1.68,1.32-3.35,1.99-5.02.65-1.65,1.3-3.3,1.96-4.95.66-1.67,1.32-3.34,2-5.05,3.52,0,7.02,0,10.52,0,.01.02.03.04.04.06,0,.02.02.05.01.07-.03.12-.06.24-.11.35ZM271.38,214.26c-.56.15-23.15.17-23.88.02-.17-.67-.17-45.82.02-46.49h23.12v9.19h-13.87c-.19.63-.21,8.61-.04,9.44h12.14v9.26c-4.04.02-8.08,0-12.1.02-.19.57-.23,8.53-.04,9.41h14.59c.16.63.19,8.27.06,9.14Z"/>
    <path d="M69.6,188.2c-2.34-1.8-4.9-3.22-7.61-4.39-2.87-1.24-5.84-1.92-9-1.61-2.83.28-5.38,1.22-7.54,3.08-3,2.59-3.44,6.41-1.09,9.6.51.69,1.13,1.31,1.77,1.88,1.31,1.18,2.85,2.02,4.43,2.79,3.04,1.48,6.25,2.25,9.61,2.41.62.03.98-.19,1.33-.68,2.8-3.91,5.64-7.8,8.46-11.7.14-.2.28-.4.44-.64-.09-.12-.13-.19-.18-.24-.21-.18-.41-.35-.63-.52Z"/>
    <path d="M87.55,194.61c2.26-1.26,4.55-2.47,6.8-3.76,5.64-3.24,11.01-6.87,15.87-11.22,2.31-2.06,4.44-4.28,6.11-6.91,1.07-1.68,1.86-3.47,2.12-5.47.2-1.5-.08-2.85-1.09-4-.62-.72-1.38-1.26-2.21-1.71-3.11-1.72-6.43-1.93-9.84-1.31-3.2.58-6.12,1.86-8.87,3.55-3.48,2.13-6.49,4.81-9.28,7.77-4.41,4.67-8.51,9.6-12.59,14.55-.11.13-.19.27-.36.51.97.72,1.67,1.37,2.81,1.71,3.46,1.02,6.5,3.04,8.9,5.73.77.86,1.13.85,1.65.57Z"/>
    <path d="M63.23,201.46c-.07.1-.13.21-.19.32,0,.02,0,.05,0,.07,0,.02.02.04.07.12,6.6-.5,12.73-2.73,18.96-5.28-3.44-2.32-6.73-4.55-10.06-6.8-2.97,3.91-5.88,7.74-8.79,11.57Z"/>
  </g>
  <path class="cls-1" d="M269.36,123.73c-5.79.17-10.77-4.88-11-11.16-.25-6.72,5.07-11.86,12.41-11.99,6.26-.11,10.89,4.43,11.07,10.85.21,7.39-4.54,12.07-12.48,12.3Z"/>
  <path class="cls-1" d="M269.25,83.53c-5.82.09-11.07-5.63-10.91-11.87.17-6.64,5.87-11.67,13.04-11.51,5.96.13,10.51,5.17,10.47,11.58-.05,6.99-5.07,11.69-12.59,11.81Z"/>
  <path d="M241.63,35.45h-61.49c-4.88,0-8.83,3.95-8.83,8.83v32.41c0,4.88,3.95,8.83,8.83,8.83h33.06c4.88,0,8.83,3.95,8.83,8.83v.21c0,4.88-3.95,8.83-8.83,8.83h-33.05c-4.88,0-8.83,3.95-8.83,8.83v1.86c0,4.88,3.95,8.83,8.83,8.83h60.29c4.88,0,8.83,3.95,8.83,8.83v.17c0,4.88-3.95,8.83-8.83,8.83h-78.37c-4.88,0-8.83-3.95-8.83-8.83V26.6c0-4.88,3.95-8.83,8.83-8.83h79.56c4.88,0,8.83,3.95,8.83,8.83h0c0,4.89-3.95,8.84-8.83,8.84Z"/>
  <path class="cls-1" d="M64.37,90.94c.75,2.8-1.37,6.8-5.12,8.99-2.65,1.55-6.8,1.03-8.99-1.69-1.79-2.23-3.12-4.9-4.3-7.54-1.01-2.26-2.02-2.8-4.42-1.76-2.52,1.09-5.31,1.91-8.04,2.12-5.08.38-8.21-2.67-7.89-7.71.18-2.85,1.03-5.72,2.02-8.43.85-2.34.43-3.42-1.89-4.46-2.62-1.17-5.29-2.61-7.37-4.54-3.73-3.46-3.09-9.04,1.16-11.89,2-1.34,4.25-2.36,6.48-3.31,2.13-.9,2.56-2.04,1.78-4.26-1-2.83-1.9-5.82-2.1-8.79-.31-4.52,2.62-7.5,7.16-7.21,3.2.2,6.42,1.16,9.49,2.19,1.89.64,2.84.55,3.69-1.37,1.07-2.43,2.4-4.75,3.71-7.05,2.26-3.95,8.48-4.77,11.63-1.18,2.03,2.32,3.47,5.25,4.77,8.09,1.07,2.33,2.15,2.82,4.46,1.62,4.43-2.3,9.26-4.27,13.58-.33,4.29,3.91,2.47,8.91.54,13.23-1.46,3.26-1.08,4.74,2.34,5.82,2.04.65,4.06,1.79,5.68,3.18.97.83,1.24,2.56,1.64,3.94.4,1.36.56,2.79,1.22,4.2-1.34,4.55-5.34,6.43-9.48,7.93-2.6.95-3.27,2.23-1.83,4.55,2.54,4.1,2.01,8.52.73,12.69-.43,1.39-2.9,2.85-4.55,3-2.69.24-5.56-.3-8.2-1.03-2.73-.75-5.3-3.02-7.88,1.01Z"/>
  <path d="M118.25,108.86c3.82,6.12,7.64,12.25,11.55,18.5,3.73,5.97-.69,13.66-7.72,13.51-1.32-.03-2.62-.07-3.93-.14-1.18-.06-2.54-1.85-3.35-3.13-6.58-10.36-13.13-20.74-19.51-31.22-1.47-2.42-3.1-3.35-5.94-3.28-5.11.12-10.22.12-15.46.1-4.89-.02-8.87,3.94-8.87,8.83v19.72c0,4.88-3.95,8.83-8.83,8.83h0c-4.88,0-8.83-3.95-8.83-8.83V26.48c0-4.87,3.94-8.82,8.81-8.83,3.42,0,6.81,0,10.2.04,12.14.17,24.33-.13,36.41.78,19.93,1.51,34.34,16.78,35.78,36.96,1.25,17.55-3.69,31.81-17.68,41.38-3.95,2.7-5.16,7.98-2.63,12.04ZM65.19,76.4c0,4.84,3.9,8.77,8.73,8.83,9.16.1,18.13.26,27.06-.21,8.45-.45,14.37-5.49,17.69-13.35,6.25-14.77-.93-32.99-14.97-34.69-9.8-1.19-19.81-.72-29.93-.45-4.78.12-8.59,4.04-8.59,8.83v31.06Z"/>
</svg>