<?xml version="1.0" encoding="UTF-8"?>
<svg id="Capa_1" xmlns="http://www.w3.org/2000/svg" viewBox="0 0 112.05 114.67">
  <defs>
    <style>
      .cls-1 {
        fill: #1e3a64;
      }
    </style>
  </defs>
  <path class="cls-1" d="M56.85,109.92v-36.15c0-2.41,2.86-3.62,4.64-1.99,9.99,9.24,21.45,11.02,34.4,6.11,8.8-3.34,14.14-10.1,15.05-18.16.18-1.62-1.11-3.04-2.74-3.04h-35.98c-2.41,0-3.62-2.86-1.99-4.63,9.13-9.92,10.95-21.24,6.18-33.99-3.08-8.21-8.75-13.78-17.91-15.59-1.7-.34-3.29.97-3.29,2.7v36.18c0,2.36-2.76,3.6-4.55,2.06-11.58-9.96-23.98-11.55-37.74-4.57-7.06,3.58-11.24,9.72-11.9,16.72-.15,1.61,1.12,3.01,2.74,3.01h35.85c2.38,0,3.61,2.8,2.04,4.58-9.95,11.33-11.15,23.8-4.37,37.43,3.29,6.62,8.65,10.95,16.42,12.05,1.66.24,3.16-1.04,3.16-2.72Z"/>
</svg>