<?xml version="1.0" encoding="UTF-8"?>
<svg id="Capa_1" xmlns="http://www.w3.org/2000/svg" viewBox="0 0 361.51 222.42">
  <defs>
    <style>
      .cls-1 {
        fill: #fff;
      }

      .cls-2 {
        fill: #1e3a64;
      }
    </style>
  </defs>
  <path class="cls-1" d="M323.42,27.86h-74.97c-1.16,0-2.09.94-2.09,2.09v28.88c0,1.16.94,2.09,2.09,2.09h56.54c1.16,0,2.09.94,2.09,2.09v13.69c0,1.16-.94,2.09-2.09,2.09h-56.53c-1.16,0-2.09.94-2.09,2.09v32.33c0,1.16.94,2.09,2.09,2.09h73.77c1.16,0,2.09.94,2.09,2.09v13.65c0,1.16-.94,2.09-2.09,2.09h-91.85c-1.16,0-2.09-.94-2.09-2.09V12.28c0-1.16.94-2.09,2.09-2.09h93.04c1.16,0,2.09.94,2.09,2.09v13.49c0,1.16-.94,2.09-2.09,2.09Z"/>
  <path class="cls-1" d="M341.99,101.78c-5.79.17-10.77-4.88-11-11.16-.25-6.72,5.07-11.86,12.41-11.99,6.26-.11,10.89,4.43,11.07,10.85.21,7.39-4.54,12.07-12.48,12.3Z"/>
  <path class="cls-1" d="M341.87,61.57c-5.82.09-11.07-5.63-10.91-11.87.17-6.64,5.87-11.67,13.04-11.51,5.96.13,10.51,5.17,10.47,11.58-.05,6.99-5.07,11.69-12.59,11.81Z"/>
  <path class="cls-2" d="M60.52,213.7v-36.15c0-2.41,2.86-3.62,4.64-1.99,9.99,9.24,21.45,11.02,34.4,6.11,8.8-3.34,14.14-10.1,15.05-18.16.18-1.62-1.11-3.04-2.74-3.04h-35.98c-2.41,0-3.62-2.86-1.99-4.63,9.13-9.92,10.95-21.24,6.18-33.99-3.08-8.21-8.75-13.78-17.91-15.59-1.7-.34-3.29.97-3.29,2.7v36.18c0,2.36-2.76,3.6-4.55,2.06-11.58-9.96-23.98-11.55-37.74-4.57-7.06,3.58-11.24,9.72-11.9,16.72-.15,1.61,1.12,3.01,2.74,3.01h35.85c2.38,0,3.61,2.8,2.04,4.58-9.95,11.33-11.15,23.8-4.37,37.43,3.29,6.62,8.65,10.95,16.42,12.05,1.66.24,3.16-1.04,3.16-2.72Z"/>
  <path class="cls-1" d="M177.46,92.96c7.12,11.41,14.16,22.7,21.63,34.66.87,1.39-.13,3.19-1.77,3.2-5.81.03-11.08.1-16.33-.16-1.18-.06-2.54-1.85-3.35-3.13-6.58-10.36-13.13-20.74-19.51-31.22-1.47-2.42-3.1-3.35-5.94-3.28-7.29.18-14.58.09-22.23.07-1.16,0-2.1.94-2.1,2.09v33.22c0,1.16-.94,2.09-2.09,2.09h-13.48c-1.16,0-2.09-.94-2.09-2.09V9.7c0-1.15.94-2.09,2.09-2.09,5.73-.01,11.33-.06,16.93.02,12.14.17,24.33-.13,36.41.78,19.93,1.51,34.34,16.78,35.78,36.96,1.4,19.67-4.98,35.21-23.15,44.64-1.08.56-1.44,1.92-.8,2.95ZM128.04,73.02c0,1.15.93,2.08,2.09,2.09,11.49.05,22.62.42,33.71-.16,8.45-.45,14.37-5.49,17.69-13.35,6.25-14.77-.93-32.99-14.97-34.69-11.9-1.44-24.1-.44-36.44-.33-1.15.01-2.08.94-2.08,2.08v44.36Z"/>
</svg>