<?xml version="1.0" encoding="UTF-8"?>
<svg id="Capa_1" xmlns="http://www.w3.org/2000/svg" xmlns:xlink="http://www.w3.org/1999/xlink" viewBox="0 0 469.57 244.44">
  <defs>
    <style>
      .cls-1 {
        fill: none;
      }

      .cls-2 {
        fill: #fff;
      }

      .cls-3 {
        fill: #1e3a64;
      }

      .cls-4 {
        clip-path: url(#clippath);
      }
    </style>
    <clipPath id="clippath">
      <path class="cls-1" d="M64.73,215.09v-36.15c0-2.41,2.86-3.62,4.64-1.99,9.99,9.24,21.45,11.02,34.4,6.11,8.8-3.34,14.14-10.1,15.05-18.16.18-1.62-1.11-3.04-2.74-3.04h-35.98c-2.41,0-3.62-2.86-1.99-4.63,9.13-9.92,10.95-21.24,6.18-33.99-3.08-8.21-8.75-13.78-17.91-15.59-1.7-.34-3.29.97-3.29,2.7v36.18c0,2.36-2.76,3.6-4.55,2.06-11.58-9.96-23.98-11.55-37.74-4.57-7.06,3.58-11.24,9.72-11.9,16.72-.15,1.61,1.12,3.01,2.74,3.01h35.85c2.38,0,3.61,2.8,2.04,4.58-9.95,11.33-11.15,23.8-4.37,37.43,3.29,6.62,8.65,10.95,16.42,12.05,1.66.24,3.16-1.04,3.16-2.72Z"/>
    </clipPath>
  </defs>
  <g>
    <path class="cls-2" d="M252.47,202.01c.32-.35.6-.77.8-1.2.45-.96-.07-1.67-1.11-1.45-.64.14-1.28.46-1.8.85-1.59,1.2-2.78,2.76-3.62,4.57-.15.32-.22.67-.38,1.2.49-.13.82-.16,1.1-.3,1.89-.92,3.61-2.09,5.02-3.67Z"/>
    <path class="cls-2" d="M138.57,154.07v85.64h18.66c5.13-4.27,9.88-8.94,14.22-14.01,3.08-3.59,5.98-7.34,8.95-11.02.21-.26.39-.54.69-.95-.46-.05-.69-.09-.93-.09-4.55-.13-8.66-1.61-12.46-4.04-2.06-1.32-3.95-2.82-5.48-4.75-2.39-3.02-3.35-6.55-2.15-10.75.52-1.82,1.5-3.49,2.75-4.92,2.73-3.11,6.16-5.02,10.26-5.8,4.98-.95,9.81-.14,14.58,1.48,3.5,1.18,6.8,2.86,10,4.69.27.15.53.3.8.44.05.03.12.01.26.03.25-.32.53-.67.8-1.02,3.63-4.8,7.38-9.5,11.49-13.89,5.08-5.43,10.48-10.5,16.72-14.53,3.68-2.38,7.57-4.32,11.83-5.47,2.56-.69,5.17-1.14,7.83-1.01,3.71.18,7.05,1.36,9.74,4.01,2.07,2.04,2.76,4.58,2.42,7.43-.47,3.94-2.3,7.28-4.68,10.37-3.08,4.01-6.81,7.34-10.81,10.38-5.92,4.48-12.26,8.31-18.72,11.94-2.33,1.31-4.69,2.56-7.04,3.84-.26.14-.52.3-.87.5.42.29.62.47.98.62,8.95,3.69,17.46,8.39,24.84,14.66,3.19,2.71,6.97,4.19,10.71,5.72.2.08.4.15.6.23.86.34.87.35.58,1.3-1.52.32-3.02.22-4.53-.2-2.97-.82-5.79-2.03-8.58-3.32-7.01-3.24-13.75-6.98-20.45-10.8-3.15-1.8-6.28-3.64-9.4-5.48-.52-.31-.93-.36-1.51-.06-4.7,2.4-9.8,3.83-14.71,5.68-3.14,1.18-6.44,1.76-9.77,2.17-.61.08-1.22.24-1.84.25-.56.01-.89.28-1.2.7-5.32,7.01-11.04,13.68-17.02,20.14-1.76,1.9-3.57,3.76-5.46,5.52h298.14v-85.64H138.57ZM253.79,214.42c-1.59.51-3.21.86-4.87.94-.85.04-1.73-.02-2.56-.2-2.12-.47-3.37-2.06-3.62-4.46-.03-.31-.03-.61-.05-.92-.04-1.67.55-3.17,1.37-4.6s1.86-2.72,3-3.91c1.97-2.05,3.98-4.1,6.7-4.53,1.18-.19,2.02.36,2.73,1.2.65.77.52,1.63.17,2.45-.21.5-.55.95-.93,1.33-.68.67-1.38,1.32-2.14,1.89-2.23,1.68-4.45,3.4-6.98,4.63-.41.2-.51.49-.46.89.17,1.24.8,2.18,1.86,2.82,1.3.79,2.72.92,4.18.66,1.86-.32,3.59-1.05,5.28-1.87,3.47-1.69,6.64-3.85,9.73-6.15,2.14-1.6,4.29-3.19,6.43-4.79.15-.11.29-.23.44-.33.29-.19.61-.39.9-.07.27.31.09.65-.09.94-.11.18-.29.32-.45.46-3.64,3.08-7.3,6.13-11.23,8.83-2.92,2.01-6.02,3.69-9.41,4.78ZM279.07,213.58c-.68.21-1.38.32-2.01.46-.61-.11-1.14-.15-1.63-.31-1.24-.41-1.75-1.25-1.72-2.71.03-1.28.61-2.1,1.82-2.46,1.46-.44,2.85-.29,4.12.62.88.64,1.34,1.49,1.08,2.66-.19.83-.84,1.49-1.65,1.74ZM283.07,204.06c-1.26.54-2.57.58-3.87.13-1.17-.4-1.64-1.16-1.65-2.48,0-1.35.51-2.21,1.65-2.59.54-.18,1.14-.22,1.71-.33,1.28,0,2.29.52,3.06,1.49,1.05,1.3.62,3.12-.9,3.78ZM340.47,168.63c-4.02,6.33-8.04,12.65-12.06,18.98-2.38,3.75-4.76,7.5-7.16,11.24-.34.52-.51,1.13-.51,1.75.02,7.96,0,15.92,0,23.88v1.22h-11.41v-1.13c0-7.97,0-15.94.01-23.91,0-.66-.19-1.3-.54-1.86-6.32-9.96-12.63-19.93-18.93-29.9-.21-.33-.41-.67-.63-1.02.72-.21,11.76-.29,13.91-.11,3.9,6.58,7.83,13.2,11.86,19.98,1.48-2.27,2.72-4.51,4.04-6.7,1.33-2.21,2.63-4.44,3.95-6.66,1.32-2.22,2.63-4.43,3.95-6.65h14.03c-.19.34-.34.62-.5.89ZM400.32,168.36c-7.89,19.46-15.79,38.92-23.68,58.37-.03.08-.11.14-.18.24h-2.43c-7.98-19.67-15.97-39.39-24.01-59.22h13.27c4.1,10.29,8.46,20.53,11.96,31.15.98-2.03,1.64-4.14,2.39-6.21.76-2.08,1.48-4.17,2.26-6.23.79-2.09,1.65-4.17,2.47-6.25.81-2.05,1.62-4.11,2.44-6.17.82-2.08,1.65-4.16,2.49-6.28,4.38,0,8.74,0,13.09,0,.02.02.04.04.05.07.01.03.02.06.02.09-.04.15-.08.3-.13.44ZM445.79,225.62c-.7.18-28.82.21-29.73.03-.22-.83-.21-57.05.02-57.88h28.78v11.45h-17.27c-.24.78-.27,10.72-.05,11.75h15.11v11.54c-5.03.03-10.06,0-15.06.02-.24.71-.28,10.62-.05,11.72h18.16c.2.78.24,10.29.08,11.39Z"/>
    <path class="cls-2" d="M194.56,193.18c-2.92-2.24-6.1-4.01-9.47-5.46-3.58-1.54-7.28-2.39-11.21-2.01-3.52.34-6.7,1.51-9.39,3.84-3.74,3.22-4.29,7.99-1.36,11.96.63.86,1.41,1.63,2.2,2.34,1.64,1.47,3.55,2.51,5.52,3.47,3.78,1.84,7.78,2.8,11.97,3,.77.04,1.22-.23,1.66-.85,3.49-4.87,7.02-9.71,10.53-14.56.18-.25.35-.5.55-.79-.11-.15-.16-.24-.23-.29-.26-.22-.51-.44-.78-.65Z"/>
    <path class="cls-2" d="M216.91,201.16c2.82-1.57,5.67-3.08,8.46-4.68,7.02-4.04,13.71-8.56,19.76-13.97,2.87-2.57,5.53-5.33,7.61-8.61,1.33-2.1,2.31-4.32,2.64-6.81.25-1.86-.1-3.54-1.36-4.99-.78-.89-1.72-1.57-2.75-2.14-3.87-2.14-8-2.4-12.26-1.63-3.98.72-7.62,2.32-11.05,4.42-4.33,2.66-8.08,5.99-11.56,9.68-5.48,5.82-10.6,11.95-15.68,18.12-.13.16-.24.34-.45.63,1.21.89,2.07,1.71,3.5,2.13,4.3,1.27,8.1,3.78,11.08,7.13.95,1.07,1.41,1.06,2.05.71Z"/>
    <path class="cls-2" d="M186.62,209.68c-.09.12-.16.26-.23.39-.01.02,0,.06.01.09,0,.03.03.05.09.15,8.21-.62,15.85-3.4,23.6-6.57-4.28-2.89-8.38-5.66-12.53-8.47-3.7,4.87-7.32,9.64-10.94,14.41Z"/>
  </g>
  <g class="cls-4">
    <image width="1500" height="1500" transform="translate(127.49 226.35) rotate(-180) scale(.08)" xlink:href="../../../poronga/reyve/public/grad-4.jpg"/>
  </g>
  <path class="cls-2" d="M327.63,29.25h-74.97c-1.16,0-2.09.94-2.09,2.09v28.88c0,1.16.94,2.09,2.09,2.09h56.54c1.16,0,2.09.94,2.09,2.09v13.69c0,1.16-.94,2.09-2.09,2.09h-56.53c-1.16,0-2.09.94-2.09,2.09v32.33c0,1.16.94,2.09,2.09,2.09h73.77c1.16,0,2.09.94,2.09,2.09v13.65c0,1.16-.94,2.09-2.09,2.09h-91.85c-1.16,0-2.09-.94-2.09-2.09V13.67c0-1.16.94-2.09,2.09-2.09h93.04c1.16,0,2.09.94,2.09,2.09v13.49c0,1.16-.94,2.09-2.09,2.09Z"/>
  <path class="cls-2" d="M346.19,103.16c-5.79.17-10.77-4.88-11-11.16-.25-6.72,5.07-11.86,12.41-11.99,6.26-.11,10.89,4.43,11.07,10.85.21,7.39-4.54,12.07-12.48,12.3Z"/>
  <path class="cls-2" d="M346.08,62.96c-5.82.09-11.07-5.63-10.91-11.87.17-6.64,5.87-11.67,13.04-11.51,5.96.13,10.51,5.17,10.47,11.58-.05,6.99-5.07,11.69-12.59,11.81Z"/>
  <path class="cls-3" d="M64.73,215.09v-36.15c0-2.41,2.86-3.62,4.64-1.99,9.99,9.24,21.45,11.02,34.4,6.11,8.8-3.34,14.14-10.1,15.05-18.16.18-1.62-1.11-3.04-2.74-3.04h-35.98c-2.41,0-3.62-2.86-1.99-4.63,9.13-9.92,10.95-21.24,6.18-33.99-3.08-8.21-8.75-13.78-17.91-15.59-1.7-.34-3.29.97-3.29,2.7v36.18c0,2.36-2.76,3.6-4.55,2.06-11.58-9.96-23.98-11.55-37.74-4.57-7.06,3.58-11.24,9.72-11.9,16.72-.15,1.61,1.12,3.01,2.74,3.01h35.85c2.38,0,3.61,2.8,2.04,4.58-9.95,11.33-11.15,23.8-4.37,37.43,3.29,6.62,8.65,10.95,16.42,12.05,1.66.24,3.16-1.04,3.16-2.72Z"/>
  <path class="cls-2" d="M181.66,94.35c7.12,11.41,14.16,22.7,21.63,34.66.87,1.39-.13,3.19-1.77,3.2-5.81.03-11.08.1-16.33-.16-1.18-.06-2.54-1.85-3.35-3.13-6.58-10.36-13.13-20.74-19.51-31.22-1.47-2.42-3.1-3.35-5.94-3.28-7.29.18-14.58.09-22.23.07-1.16,0-2.1.94-2.1,2.09v33.22c0,1.16-.94,2.09-2.09,2.09h-13.48c-1.16,0-2.09-.94-2.09-2.09V11.08c0-1.15.94-2.09,2.09-2.09,5.73-.01,11.33-.06,16.93.02,12.14.17,24.33-.13,36.41.78,19.93,1.51,34.34,16.78,35.78,36.96,1.4,19.67-4.98,35.21-23.15,44.64-1.08.56-1.44,1.92-.8,2.95ZM132.24,74.41c0,1.15.93,2.08,2.09,2.09,11.49.05,22.62.42,33.71-.16,8.45-.45,14.37-5.49,17.69-13.35,6.25-14.77-.93-32.99-14.97-34.69-11.9-1.44-24.1-.44-36.44-.33-1.15.01-2.08.94-2.08,2.08v44.36Z"/>
</svg>